<svg xmlns="http://www.w3.org/2000/svg" version="1.1" xmlns:xlink="http://www.w3.org/1999/xlink" xmlns:svgjs="http://svgjs.com/svgjs" width="512" height="512" x="0" y="0" viewBox="0 0 488.919 488.919" style="enable-background:new 0 0 512 512" xml:space="preserve"><g><path d="M173.478 365.788c-6.318 1.26-24.677 15.299-28.83 14.633-12.698-12.642-24.349-26.343-34.637-41.016a282.044 282.044 0 0 1-17.258-27.975l.057-.029a282.433 282.433 0 0 1-16.838-37.42c-6.145-16.835-10.712-34.23-13.811-51.878 1.831-3.787 23.852-10.806 28.5-15.265 27.078-25.976 20.028-99.397-32.943-91.678-68.131 9.899-63.735 90.647-47.94 140.407 5.923 18.657 15.994 46.073 29.717 74.412l3.718 7.289c15.386 27.471 32.103 51.421 44.012 66.956 31.766 41.433 95.464 91.251 142.575 41.049 36.46-39.989-19.527-86.822-56.322-79.485z" fill="#f8f8f8" data-original="#000000"></path><path d="M233.564 264.971h-38.536l6.921-5.768c.08-.066.157-.134.234-.202 22.622-20.226 37.689-38.453 37.689-61.665 0-28.142-20.187-46.324-51.429-46.324-15.541 0-30.751 4.227-42.828 11.904a8.86 8.86 0 0 0-3.489 10.728l4.699 11.91a8.86 8.86 0 0 0 12.895 4.287c7.507-4.635 14.954-6.984 22.133-6.984 17.182 0 19.783 10.752 19.796 17.198-.406 14.739-14.614 29.975-44.34 56.56l-15.89 14.378a8.858 8.858 0 0 0-2.916 6.569v11.031a8.858 8.858 0 0 0 8.859 8.859h86.202a8.858 8.858 0 0 0 8.859-8.859V273.83a8.859 8.859 0 0 0-8.859-8.859zM350.267 234.355h-7.726v-72.146a8.86 8.86 0 0 0-8.859-8.859h-30.354a8.856 8.856 0 0 0-7.524 4.186l-49.681 79.972a8.86 8.86 0 0 0-1.333 4.675v13.458a8.858 8.858 0 0 0 8.859 8.858h52.372v24.095a8.859 8.859 0 0 0 8.859 8.859h18.804a8.858 8.858 0 0 0 8.859-8.859v-24.095h7.726a8.859 8.859 0 0 0 8.859-8.858v-12.427c-.002-4.892-3.969-8.859-8.861-8.859zm-44.247 0h-23.074l23.09-40.789-.016 40.789z" fill="#f8f8f8" data-original="#000000"></path><path d="m482.78 152.624-53.479-29.192c-12.932-22.041-30.056-41.65-50.832-57.816-43.051-33.498-96.57-48.224-150.698-41.471-45.999 5.74-89.068 27.2-121.273 60.425-8.143 8.4-7.933 21.81.467 29.953 8.399 8.143 21.81 7.933 29.953-.467 25.883-26.703 59.114-43.257 96.1-47.872 63.006-7.866 122.197 21.792 155.095 71.451l-19.874 60.241a11.785 11.785 0 0 0 15.519 14.651l29.082-11.489c.304 1.893.587 3.793.827 5.709 5.354 42.899-6.319 85.316-32.868 119.438-26.549 34.119-64.796 55.858-107.694 61.212-11.609 1.449-19.846 12.034-18.396 23.644 1.338 10.719 10.463 18.562 20.993 18.561.874 0 1.76-.054 2.649-.165 54.128-6.755 102.387-34.185 135.885-77.235s48.226-96.57 41.471-150.698a208.681 208.681 0 0 0-2.71-16.328l28.47-11.247a11.789 11.789 0 0 0 7.432-10.233 11.794 11.794 0 0 0-6.119-11.072z" fill="#f8f8f8" data-original="#000000"></path></g></svg>