<svg xmlns="http://www.w3.org/2000/svg" version="1.1" xmlns:xlink="http://www.w3.org/1999/xlink" xmlns:svgjs="http://svgjs.com/svgjs" width="512" height="512" x="0" y="0" viewBox="0 0 511.318 511.318" style="enable-background:new 0 0 512 512" xml:space="preserve"><g><path d="M207.723 315.581H95.872a3.998 3.998 0 0 0-3.995 3.995v31.957a3.988 3.988 0 0 0 3.995 3.995h111.851a3.986 3.986 0 0 0 3.994-3.995v-31.957c0-2.2-1.786-3.995-3.994-3.995zm-3.995 31.958H99.867v-23.968h103.861v23.968zM415.447 107.855H303.595c-2.207 0-3.994 1.787-3.994 3.995s1.787 3.994 3.994 3.994h111.851c2.208 0 3.995-1.786 3.995-3.994s-1.786-3.995-3.994-3.995z" fill="#ffffff" data-original="#000000"></path><path d="M418.269 109.025a3.991 3.991 0 0 0-5.648 0L204.898 316.752a3.993 3.993 0 0 0 2.825 6.819 3.986 3.986 0 0 0 2.825-1.171l207.721-207.727a3.992 3.992 0 0 0 0-5.648zM418.269 140.99a3.991 3.991 0 0 0-5.648 0L204.898 348.709a3.994 3.994 0 0 0 5.648 5.649l207.723-207.72a3.992 3.992 0 0 0 0-5.648zM306.419 109.025a3.993 3.993 0 0 0-5.649 0L93.048 316.752a3.991 3.991 0 0 0 0 5.648 3.982 3.982 0 0 0 2.824 1.171 3.985 3.985 0 0 0 2.825-1.171l207.722-207.727a3.993 3.993 0 0 0 0-5.648z" fill="#ffffff" data-original="#000000"></path><path d="M415.446 107.854a3.993 3.993 0 0 0-3.995 3.995v31.965c0 2.208 1.787 3.995 3.995 3.995s3.994-1.787 3.994-3.995v-31.965a3.992 3.992 0 0 0-3.994-3.995zM274.088 252.514c-.219-.172-21.042-15.882-45.225 8.316l-55.922 55.922 5.649 5.648 55.921-55.925c19.065-19.056 34.075-8.114 34.677-7.658a3.973 3.973 0 0 0 5.602-.698 3.986 3.986 0 0 0-.702-5.605zM230.521 156.969a3.993 3.993 0 0 0-5.649 0l-23.968 23.968a3.993 3.993 0 0 0 2.824 6.819c1.023 0 2.044-.39 2.825-1.17l23.968-23.969a3.993 3.993 0 0 0 0-5.648zM115.846 363.518H3.995a3.997 3.997 0 0 0-3.994 3.995v31.957a3.986 3.986 0 0 0 3.994 3.994h111.851a3.988 3.988 0 0 0 3.995-3.994v-31.957a3.997 3.997 0 0 0-3.995-3.995zm-3.995 31.956H7.99v-23.968h103.861v23.968z" fill="#ffffff" data-original="#000000"></path><path d="M239.696 155.775h-27.979c-2.208 0-3.994 1.786-3.994 3.994s1.786 3.995 3.994 3.995h27.979c2.208 0 3.995-1.787 3.995-3.995s-1.787-3.994-3.995-3.994zM150.378 364.938a3.991 3.991 0 0 0-5.648 0l-31.708 31.708a3.991 3.991 0 0 0 0 5.648c.78.78 1.803 1.17 2.824 1.17 1.022 0 2.044-.39 2.824-1.17l31.708-31.708a3.992 3.992 0 0 0 0-5.648z" fill="#ffffff" data-original="#000000"></path><path d="M214.542 156.961a3.991 3.991 0 0 0-5.648 0L1.171 364.688a3.993 3.993 0 0 0 2.824 6.819 3.985 3.985 0 0 0 2.824-1.17l207.723-207.728a3.991 3.991 0 0 0 0-5.648zM299.601 363.518H187.75a3.997 3.997 0 0 0-3.995 3.995v31.957a3.987 3.987 0 0 0 3.995 3.994H299.6a3.988 3.988 0 0 0 3.995-3.994v-31.957a3.997 3.997 0 0 0-3.994-3.995zm-3.995 31.956H191.744v-23.968h103.862v23.968zM507.323 155.791h-91.838a3.991 3.991 0 0 0-3.995 3.994 3.992 3.992 0 0 0 3.995 3.995h91.838c2.208 0 3.994-1.787 3.994-3.995s-1.786-3.994-3.994-3.994z" fill="#ffffff" data-original="#000000"></path><path d="M510.147 156.961a3.991 3.991 0 0 0-5.648 0L296.776 364.688a3.993 3.993 0 0 0 2.824 6.819 3.988 3.988 0 0 0 2.825-1.17l207.722-207.728a3.992 3.992 0 0 0 0-5.648zM510.147 188.926a3.993 3.993 0 0 0-5.648 0l-207.723 207.72a3.991 3.991 0 0 0 0 5.648c.78.78 1.803 1.17 2.824 1.17 1.023 0 2.044-.39 2.825-1.17l207.722-207.719a3.993 3.993 0 0 0 0-5.649z" fill="#ffffff" data-original="#000000"></path><path d="M507.323 155.791a3.991 3.991 0 0 0-3.994 3.994v31.966c0 2.208 1.786 3.994 3.994 3.994s3.994-1.786 3.994-3.994v-31.966a3.991 3.991 0 0 0-3.994-3.994zM262.478 332.731a3.993 3.993 0 0 0-5.649 0l-31.957 31.957a3.993 3.993 0 0 0 2.824 6.819 3.982 3.982 0 0 0 2.824-1.17l31.958-31.958a3.992 3.992 0 0 0 0-5.648zM326.393 308.763a3.993 3.993 0 0 0-5.649 0l-55.925 55.909a3.993 3.993 0 0 0 2.824 6.819 3.985 3.985 0 0 0 2.824-1.17l55.926-55.91a3.993 3.993 0 0 0 0-5.648zM429.927 157.305a3.999 3.999 0 0 0-5.648-.004l-34.127 34.122 5.648 5.648 34.127-34.114a3.997 3.997 0 0 0 0-5.652zM334.397 109.025a3.991 3.991 0 0 0-5.648 0l-39.954 39.962a3.991 3.991 0 0 0 0 5.648 3.982 3.982 0 0 0 2.824 1.171c1.022 0 2.044-.39 2.824-1.171l39.954-39.962a3.992 3.992 0 0 0 0-5.648zM374.329 109.025a3.991 3.991 0 0 0-5.648 0l-79.886 79.885a3.993 3.993 0 0 0 2.824 6.819 3.977 3.977 0 0 0 2.824-1.17l79.886-79.886a3.992 3.992 0 0 0 0-5.648z" fill="#ffffff" data-original="#000000"></path></g></svg>