<?xml version="1.0" encoding="UTF-8" standalone="no"?>
<!-- Created with Inkscape (http://www.inkscape.org/) -->
<svg xmlns="http://www.w3.org/2000/svg" xmlns:svg="http://www.w3.org/2000/svg" version="1.1" id="svg1491" width="682.66669" height="682.66669" viewBox="0 0 682.66669 682.66669">
  <defs id="defs1495">
    <clipPath clipPathUnits="userSpaceOnUse" id="clipPath1505">
      <path d="M 0,512 H 512 V 0 H 0 Z" id="path1503"/>
    </clipPath>
  </defs>
  <mask id="custom"><rect id="bg" x="0" y="0" width="100%" height="100%" fill="white"/><g transform="matrix(1.3333333,0,0,-1.3333333,0,682.66667)"/></mask><g mask="url(#custom)"><g id="g1497" transform="matrix(1.3333333,0,0,-1.3333333,0,682.66667)">
    <g id="g1499">
      <g id="g1501" clip-path="url(#clipPath1505)">
        <g id="g1507" transform="translate(261.7988,416.4848)">
          <path d="m 0,0 c -0.016,0.027 -0.031,0.055 -0.048,0.082 -2.542,4.333 -8.96,4.333 -11.502,0 C -11.566,0.055 -11.582,0.027 -11.598,0 L -66.239,-94.246 H 54.642 Z" style="fill:none;stroke:#000000;stroke-width:15;stroke-linecap:round;stroke-linejoin:round;stroke-miterlimit:10;stroke-dasharray:none;stroke-opacity:1" id="path1509"/>
        </g>
        <g id="g1511" transform="translate(265.7256,96.811)">
          <path d="M 0,0 50.715,225.428 H -70.166 L -19.451,0 C -14.436,-6.17 -5.016,-6.17 0,0 Z" style="fill:none;stroke:#000000;stroke-width:15;stroke-linecap:round;stroke-linejoin:round;stroke-miterlimit:10;stroke-dasharray:none;stroke-opacity:1" id="path1513"/>
        </g>
        <g id="g1515" transform="translate(351.4892,418.4336)">
          <path d="M 0,0 -35.049,-96.195 H 97.482 L 6.756,-4.441 C 4.82,-2.484 2.511,-0.99 0,0 Z" style="fill:none;stroke:#000000;stroke-width:15;stroke-linecap:round;stroke-linejoin:round;stroke-miterlimit:10;stroke-dasharray:none;stroke-opacity:1" id="path1517"/>
        </g>
        <g id="g1519" transform="translate(160.5107,418.4336)">
          <path d="M 0,0 35.049,-96.195 H -97.482 L -6.756,-4.441 C -4.82,-2.484 -2.511,-0.99 0,0 Z" style="fill:none;stroke:#000000;stroke-width:15;stroke-linecap:round;stroke-linejoin:round;stroke-miterlimit:10;stroke-dasharray:none;stroke-opacity:1" id="path1521"/>
        </g>
        <g id="g1523" transform="translate(466.6787,386.8955)">
          <path d="M 0,0 24.029,24.686" style="fill:none;stroke:#000000;stroke-width:15;stroke-linecap:round;stroke-linejoin:round;stroke-miterlimit:10;stroke-dasharray:none;stroke-opacity:1" id="path1525"/>
        </g>
        <g id="g1527" transform="translate(466.6787,257.583)">
          <path d="M 0,0 24.029,-24.686" style="fill:none;stroke:#000000;stroke-width:15;stroke-linecap:round;stroke-linejoin:round;stroke-miterlimit:10;stroke-dasharray:none;stroke-opacity:1" id="path1529"/>
        </g>
        <g id="g1531" transform="translate(480.455,322.2392)">
          <path d="M 0,0 H 24.029" style="fill:none;stroke:#000000;stroke-width:15;stroke-linecap:round;stroke-linejoin:round;stroke-miterlimit:10;stroke-dasharray:none;stroke-opacity:1" id="path1533"/>
        </g>
        <g id="g1535" transform="translate(45.3349,386.8945)">
          <path d="M 0,0 -24.039,24.686" style="fill:none;stroke:#000000;stroke-width:15;stroke-linecap:round;stroke-linejoin:round;stroke-miterlimit:10;stroke-dasharray:none;stroke-opacity:1" id="path1537"/>
        </g>
        <g id="g1539" transform="translate(45.3349,257.582)">
          <path d="M 0,0 -24.039,-24.686" style="fill:none;stroke:#000000;stroke-width:15;stroke-linecap:round;stroke-linejoin:round;stroke-miterlimit:10;stroke-dasharray:none;stroke-opacity:1" id="path1541"/>
        </g>
        <g id="g1543" transform="translate(31.5547,322.2383)">
          <path d="M 0,0 H -24.039" style="fill:none;stroke:#000000;stroke-width:15;stroke-linecap:round;stroke-linejoin:round;stroke-miterlimit:10;stroke-dasharray:none;stroke-opacity:1" id="path1545"/>
        </g>
        <g id="g1547" transform="translate(290.1133,419.8169)">
          <path d="m 0,0 h -122.408 c -5.241,0 -10.265,-2.097 -13.95,-5.824 l -90.727,-91.754 H 158.858 L 68.132,-5.824 C 64.446,-2.097 59.423,0 54.182,0 H 35" style="fill:none;stroke:#000000;stroke-width:15;stroke-linecap:round;stroke-linejoin:round;stroke-miterlimit:10;stroke-dasharray:none;stroke-opacity:1" id="path1549"/>
        </g>
        <g id="g1551" transform="translate(387.6201,246.7646)">
          <path d="m 0,0 61.352,75.474 h -385.944 l 183.246,-225.428 c 5.016,-6.17 14.436,-6.17 19.451,0 l 99.813,122.789" style="fill:none;stroke:#000000;stroke-width:15;stroke-linecap:round;stroke-linejoin:round;stroke-miterlimit:10;stroke-dasharray:none;stroke-opacity:1" id="path1553"/>
        </g>
      </g>
    </g>
  </g></g>
</svg>
