<svg xmlns="http://www.w3.org/2000/svg" version="1.1" xmlns:xlink="http://www.w3.org/1999/xlink" xmlns:svgjs="http://svgjs.com/svgjs" width="512" height="512" x="0" y="0" viewBox="0 0 511.999 511.999" style="enable-background:new 0 0 512 512" xml:space="preserve"><g><path d="M511.256 278.092c-.954-6.943-4.556-13.099-10.141-17.334l-65.888-49.956a7.527 7.527 0 0 0-9.095 11.995l65.888 49.955a11.116 11.116 0 0 1 4.323 7.389 11.109 11.109 0 0 1-2.169 8.283 11.11 11.11 0 0 1-7.389 4.323c-2.96.407-5.9-.363-8.282-2.168L221.998 96.096c5.18-7.78 9.831-14.002 13.083-18.155l163.066 123.637a7.493 7.493 0 0 0 4.541 1.529 7.527 7.527 0 0 0 4.553-13.525L243.58 65.494c3.742-9.936.725-21.57-8.157-28.304L192.952 4.988c-8.889-6.738-20.917-6.498-29.475-.199-11.486-8.106-27.468-5.704-36.026 5.584-4.234 5.585-6.041 12.484-5.086 19.428.797 5.797 3.445 11.04 7.546 15.079-21.635 22.808-53.98 49.52-90.929 55.704-1.558.26-3.116.484-4.67.668-.233.028-.464.061-.697.087-.742.082-1.483.146-2.223.211-.358.031-.715.067-1.074.094-.695.053-1.388.092-2.082.129-.422.023-.843.045-1.265.062a89.53 89.53 0 0 1-3.438.07c-.577.002-1.154.001-1.729-.008a87.624 87.624 0 0 1-1.913-.057c-.455-.017-.91-.029-1.363-.053a89.885 89.885 0 0 1-3.336-.234c-4.251-.392-8.334 1.21-11.202 4.378-2.87 3.17-4.055 7.395-3.249 11.591l.002.01.017.083c.097.504.202 1.028.317 1.578.036.17.079.358.116.533.09.418.178.834.279 1.276.137.602.285 1.229.443 1.873l.019.079c.32 1.305.688 2.701 1.104 4.171l.041.15c.184.646.382 1.315.586 1.99.037.123.069.239.107.363a135.938 135.938 0 0 0 1.596 4.898l.053.158a145.37 145.37 0 0 0 2.899 7.617c.106.258.203.508.312.768.245.585.51 1.186.768 1.781.174.402.338.796.518 1.202.228.514.476 1.041.714 1.562.23.502.449.997.689 1.506.265.563.551 1.139.828 1.71.233.479.454.951.695 1.435.269.539.559 1.091.839 1.636.271.528.531 1.05.812 1.584.2.38.418.768.624 1.151.382.71.757 1.417 1.158 2.135.156.279.326.564.484.845.469.83.939 1.661 1.434 2.502.167.284.349.573.519.857.504.845 1.009 1.69 1.54 2.544.156.251.327.507.485.76 6.223 9.887 14.272 20.363 24.682 30.807-20.94 6.779-31.913 16.08-31.913 27.227V473.89c0 12.189 12.566 21.903 37.35 28.872 9.812 2.759 21.105 4.935 33.342 6.486l.706.088c1.663.207 3.343.402 5.04.585.392.043.783.087 1.176.128 1.627.17 3.269.328 4.923.476.377.034.749.072 1.126.105 1.875.162 3.766.309 5.673.442.857.06 1.724.11 2.587.164 1.094.069 2.188.137 3.292.197a410.747 410.747 0 0 0 8.899.374c1.235.038 2.475.067 3.718.093.772.016 1.541.036 2.317.048 2.044.031 4.095.051 6.156.051 1.645 0 3.316-.013 4.995-.034.757-.009 1.51-.026 2.264-.039.645-.012 1.288-.019 1.934-.034.046-.001.091-.008.136-.009 19.312-.451 37.65-2.297 53.55-5.368.871-.168 1.747-.342 2.628-.522.391-.08.786-.159 1.174-.241 1.251-.263 2.509-.541 3.769-.83l.378-.086c9.145-2.11 18.383-4.91 26.127-8.6l.011-.005a72.627 72.627 0 0 0 2.181-1.087c.372-.193.745-.385 1.105-.58.171-.093.338-.189.507-.283.443-.246.878-.493 1.303-.743l.364-.217a51.504 51.504 0 0 0 1.598-.996c4.847-3.15 8.264-6.604 10.241-10.35l.013-.024a17.824 17.824 0 0 0 1.303-3.173 16.82 16.82 0 0 0 .645-3.35c.045-.509.076-1.02.076-1.538V224.313c0-20.541-35.741-29.933-61.347-34.024 2.512-30.131 16.109-59.491 29.169-81.412l255.47 193.698c4.609 3.494 10.112 5.334 15.797 5.334 1.204 0 2.417-.082 3.63-.249 6.943-.954 13.098-4.556 17.333-10.14 4.237-5.586 6.043-12.485 5.089-19.428zM139.446 19.467c3.391-4.473 9.514-5.661 14.292-3.034-3.095 4.22-7.744 10.272-13.723 17.244a11.107 11.107 0 0 1-2.738-5.927 11.12 11.12 0 0 1 2.169-8.283zM16.875 120.649a102.564 102.564 0 0 1-.936-3.936c1.018.071 2.04.122 3.064.164.241.01.482.016.724.024.874.029 1.749.048 2.627.055.148.001.296.004.445.004 4.45.02 8.938-.234 13.439-.771 7.418 19.083 22.657 44.763 53.932 68.475 26.601 20.169 51.458 28.775 70.841 32.122H95.552a185.46 185.46 0 0 1-8.688-5.353 195.601 195.601 0 0 1-23.885-18.417c-30.714-27.722-42.01-56.465-46.104-72.367zm115.304 376.283c-.789.005-1.574.016-2.366.016-14.445 0-28.808-.832-41.984-2.418 1.655-14.504 3.59-26.768 5.765-36.533 4.557-20.456 4.14-48.719-1.144-77.544a7.524 7.524 0 0 0-8.76-6.045 7.526 7.526 0 0 0-6.045 8.76c4.934 26.915 5.392 52.997 1.257 71.557-2.262 10.156-4.264 22.783-5.969 37.6-6.44-1.153-12.485-2.503-18.001-4.054-21.527-6.052-26.372-12.574-26.372-14.381V244.386c3.838 2.203 8.304 4.196 13.276 5.984-1.48 26.746 2.508 48.336 11.892 64.228 5.936 10.053 11.183 22.01 15.595 35.54a7.526 7.526 0 1 0 14.311-4.667c-4.751-14.57-10.452-27.532-16.944-38.527-7.338-12.428-10.747-30.338-9.987-52.168 10.125 2.471 21.44 4.326 33.282 5.59.674.073 1.354.141 2.034.21a364.141 364.141 0 0 0 26.43 1.681 404.68 404.68 0 0 0 6.07.13l.637.007a374.69 374.69 0 0 0 9.52-.005c.654-.008 1.305-.02 1.957-.031a462.708 462.708 0 0 0 5.33-.126c.294-.009.586-.021.879-.031 17.512-.575 34.145-2.296 48.762-5.049a1271.261 1271.261 0 0 1-5.781 7.06c-12.611 15.322-24.523 29.795-28.188 44.769-5.92 24.193-5.963 50.703-6.001 74.093-.038 22.962-.073 44.651-5.601 59.193-6.583 17.327-11.235 35.685-13.854 54.665zm98.867-22.84c-.137.847-1.113 2.416-3.673 4.378-3.962 2.977-11.394 6.683-23.566 10.037a149.523 149.523 0 0 1-3.83 1.003c-.687.171-1.382.339-2.082.505-.519.122-1.033.245-1.566.366l-.004.001c-2.647-14.569-4.093-35.163 4.899-48.031a6387.18 6387.18 0 0 1 10.167-14.491c7.357-10.464 13.916-19.794 19.673-28.342v74.372h.001c0 .064-.01.134-.019.202zm-31.968-54.889c-3.24 4.608-6.637 9.44-10.191 14.525-11.622 16.63-10.883 40.265-7.356 59.463-10.538 1.655-22.03 2.785-34.074 3.344 2.517-16.981 6.75-33.402 12.648-48.918 6.505-17.114 6.543-40.139 6.582-64.517.039-23.646.078-48.098 5.57-70.54 2.848-11.638 13.699-24.822 25.188-38.781 5.905-7.175 11.991-14.582 17.725-22.547 6.236-2.061 11.534-4.33 15.894-6.801V371.5h.001c-7.826 13.331-18.549 28.589-31.987 47.703zm31.987-194.89c0 1.703-4.304 7.587-22.791 13.322l-.004.001c-1.216.378-2.466.745-3.745 1.103-.288.081-.589.156-.88.236-1.028.281-2.062.56-3.127.828-.205.052-.418.1-.624.151-1.209.3-2.432.594-3.686.877l-.011.003c-17.072 3.849-38.208 6.135-60.371 6.487-.157.002-.311.007-.468.01a378.248 378.248 0 0 1-11.067.001l-.129-.003c-22.021-.33-43.09-2.577-60.16-6.369l-.045-.01a175.377 175.377 0 0 1-3.642-.854c-.254-.062-.513-.123-.766-.186a167.87 167.87 0 0 1-2.893-.754c-.389-.105-.784-.206-1.168-.313-1.193-.33-2.364-.667-3.502-1.015-19.017-5.796-23.424-11.793-23.424-13.515 0-2.599 7.405-9.553 29.855-15.311a211.103 211.103 0 0 0 8.282 6.619c.519.393 1.042.777 1.563 1.165h-6.183a7.526 7.526 0 1 0 0 15.052h135.139a7.526 7.526 0 1 0 0-15.052h-11.503a99.936 99.936 0 0 1-1.216-11.287c35.282 5.936 46.566 15.676 46.566 18.814zM193.673 114.06c-15.185 28.68-23.352 56.342-24.242 81.535-.007.043-.018.084-.024.127a7.538 7.538 0 0 0-.036 1.655c-.04 1.825-.033 3.635.004 5.433-18.11-2.21-42.978-9.567-70.112-30.14-27.162-20.594-40.957-42.55-47.966-59.383 24.764-6.361 50.001-20.929 74.497-43.221 26.304-23.938 42.823-48.428 44.795-51.411a9.507 9.507 0 0 1 6.187-3.526 9.507 9.507 0 0 1 7.084 1.855l42.471 32.202c4.166 3.158 5.016 9.093 1.928 13.291-2.394 2.769-19.367 22.839-34.586 51.583z" fill="#ffffff" data-original="#000000"></path></g></svg>