<?xml version="1.0" encoding="iso-8859-1"?>
<!-- Generator: Adobe Illustrator 19.0.0, SVG Export Plug-In . SVG Version: 6.00 Build 0)  -->
<svg version="1.1" id="Capa_1" xmlns="http://www.w3.org/2000/svg" xmlns:xlink="http://www.w3.org/1999/xlink" x="0px" y="0px"
	 viewBox="0 0 511.999 511.999" style="enable-background:new 0 0 511.999 511.999;" xml:space="preserve">
<g>
	<g>
		<path d="M511.256,278.092c-0.954-6.943-4.556-13.099-10.141-17.334l-65.888-49.956c-3.312-2.511-8.033-1.862-10.545,1.45
			c-2.511,3.312-1.862,8.033,1.45,10.545l65.888,49.955c2.38,1.806,3.916,4.429,4.323,7.389c0.408,2.96-0.363,5.901-2.169,8.283
			c-1.805,2.381-4.429,3.916-7.389,4.323c-2.96,0.407-5.9-0.363-8.282-2.168L221.998,96.096c5.18-7.78,9.831-14.002,13.083-18.155
			l163.066,123.637c1.36,1.031,2.957,1.529,4.541,1.529c2.275,0,4.523-1.028,6.003-2.98c2.511-3.312,1.862-8.033-1.45-10.545
			L243.58,65.494c3.742-9.936,0.725-21.57-8.157-28.304L192.952,4.988c-8.889-6.738-20.917-6.498-29.475-0.199
			c-11.486-8.106-27.468-5.704-36.026,5.584c-4.234,5.585-6.041,12.484-5.086,19.428c0.797,5.797,3.445,11.04,7.546,15.079
			c-21.635,22.808-53.98,49.52-90.929,55.704c-1.558,0.26-3.116,0.484-4.67,0.668c-0.233,0.028-0.464,0.061-0.697,0.087
			c-0.742,0.082-1.483,0.146-2.223,0.211c-0.358,0.031-0.715,0.067-1.074,0.094c-0.695,0.053-1.388,0.092-2.082,0.129
			c-0.422,0.023-0.843,0.045-1.265,0.062c-0.646,0.026-1.29,0.043-1.934,0.055c-0.501,0.009-1.002,0.014-1.504,0.015
			c-0.577,0.002-1.154,0.001-1.729-0.008c-0.636-0.011-1.275-0.032-1.913-0.057c-0.455-0.017-0.91-0.029-1.363-0.053
			c-1.109-0.059-2.221-0.133-3.336-0.234c-4.251-0.392-8.334,1.21-11.202,4.378c-2.87,3.17-4.055,7.395-3.249,11.591
			c0.001,0.003,0.001,0.007,0.002,0.01c0.005,0.026,0.012,0.057,0.017,0.083c0.097,0.504,0.202,1.028,0.317,1.578
			c0.036,0.17,0.079,0.358,0.116,0.533c0.09,0.418,0.178,0.834,0.279,1.276c0.137,0.602,0.285,1.229,0.443,1.873
			c0.007,0.027,0.012,0.052,0.019,0.079c0.32,1.305,0.688,2.701,1.104,4.171c0.014,0.051,0.027,0.098,0.041,0.15
			c0.184,0.646,0.382,1.315,0.586,1.99c0.037,0.123,0.069,0.239,0.107,0.363c0.475,1.559,1.006,3.196,1.596,4.898
			c0.019,0.054,0.035,0.104,0.053,0.158c0.837,2.408,1.804,4.959,2.899,7.617c0.106,0.258,0.203,0.508,0.312,0.768
			c0.245,0.585,0.51,1.186,0.768,1.781c0.174,0.402,0.338,0.796,0.518,1.202c0.228,0.514,0.476,1.041,0.714,1.562
			c0.23,0.502,0.449,0.997,0.689,1.506c0.265,0.563,0.551,1.139,0.828,1.71c0.233,0.479,0.454,0.951,0.695,1.435
			c0.269,0.539,0.559,1.091,0.839,1.636c0.271,0.528,0.531,1.05,0.812,1.584c0.2,0.38,0.418,0.768,0.624,1.151
			c0.382,0.71,0.757,1.417,1.158,2.135c0.156,0.279,0.326,0.564,0.484,0.845c0.469,0.83,0.939,1.661,1.434,2.502
			c0.167,0.284,0.349,0.573,0.519,0.857c0.504,0.845,1.009,1.69,1.54,2.544c0.156,0.251,0.327,0.507,0.485,0.76
			c6.223,9.887,14.272,20.363,24.682,30.807c-20.94,6.779-31.913,16.08-31.913,27.227V473.89c0,12.189,12.566,21.903,37.35,28.872
			c9.812,2.759,21.105,4.935,33.342,6.486c0.235,0.03,0.47,0.059,0.706,0.088c1.663,0.207,3.343,0.402,5.04,0.585
			c0.392,0.043,0.783,0.087,1.176,0.128c1.627,0.17,3.269,0.328,4.923,0.476c0.377,0.034,0.749,0.072,1.126,0.105
			c1.875,0.162,3.766,0.309,5.673,0.442c0.857,0.06,1.724,0.11,2.587,0.164c1.094,0.069,2.188,0.137,3.292,0.197
			c0.964,0.052,1.933,0.097,2.903,0.142c1.061,0.049,2.125,0.094,3.193,0.135c0.932,0.035,1.866,0.069,2.803,0.097
			c1.235,0.038,2.475,0.067,3.718,0.093c0.772,0.016,1.541,0.036,2.317,0.048c2.044,0.031,4.095,0.051,6.156,0.051
			c1.645,0,3.316-0.013,4.995-0.034c0.757-0.009,1.51-0.026,2.264-0.039c0.645-0.012,1.288-0.019,1.934-0.034
			c0.046-0.001,0.091-0.008,0.136-0.009c19.312-0.451,37.65-2.297,53.55-5.368c0.871-0.168,1.747-0.342,2.628-0.522
			c0.391-0.08,0.786-0.159,1.174-0.241c1.251-0.263,2.509-0.541,3.769-0.83c0.126-0.029,0.253-0.057,0.378-0.086
			c9.145-2.11,18.383-4.91,26.127-8.6c0.004-0.002,0.007-0.004,0.011-0.005c0.742-0.354,1.468-0.717,2.181-1.087
			c0.372-0.193,0.745-0.385,1.105-0.58c0.171-0.093,0.338-0.189,0.507-0.283c0.443-0.246,0.878-0.493,1.303-0.743
			c0.122-0.072,0.243-0.145,0.364-0.217c0.517-0.31,1.02-0.622,1.508-0.938c0.03-0.019,0.061-0.039,0.09-0.058
			c4.847-3.15,8.264-6.604,10.241-10.35c0.004-0.008,0.008-0.016,0.013-0.024c0.509-0.968,0.922-1.955,1.238-2.962
			c0.022-0.07,0.044-0.141,0.065-0.211c0.295-0.983,0.499-1.984,0.611-3.003c0.013-0.115,0.024-0.231,0.034-0.347
			c0.045-0.509,0.076-1.02,0.076-1.538V373.537V224.313c0-20.541-35.741-29.933-61.347-34.024
			c2.512-30.131,16.109-59.491,29.169-81.412l255.47,193.698c4.609,3.494,10.112,5.334,15.797,5.334c1.204,0,2.417-0.082,3.63-0.249
			c6.943-0.954,13.098-4.556,17.333-10.14C510.404,291.934,512.21,285.035,511.256,278.092z M139.446,19.467
			c3.391-4.473,9.514-5.661,14.292-3.034c-3.095,4.22-7.744,10.272-13.723,17.244c-1.475-1.645-2.43-3.689-2.738-5.927
			C136.871,24.789,137.641,21.848,139.446,19.467z M16.875,120.649c-0.364-1.412-0.677-2.736-0.936-3.936
			c1.018,0.071,2.04,0.122,3.064,0.164c0.241,0.01,0.482,0.016,0.724,0.024c0.874,0.029,1.749,0.048,2.627,0.055
			c0.148,0.001,0.296,0.004,0.445,0.004c4.45,0.02,8.938-0.234,13.439-0.771c7.418,19.083,22.657,44.763,53.932,68.475
			c26.601,20.169,51.458,28.775,70.841,32.122H95.552c-2.915-1.687-5.815-3.472-8.688-5.353c-3.746-2.453-7.448-5.059-11.072-7.807
			c-3.765-2.854-7.283-5.741-10.6-8.641c-0.75-0.656-1.485-1.312-2.213-1.969C32.265,165.294,20.969,136.551,16.875,120.649z
			 M132.179,496.932c-0.789,0.005-1.574,0.016-2.366,0.016c-14.445,0-28.808-0.832-41.984-2.418
			c1.655-14.504,3.59-26.768,5.765-36.533c4.557-20.456,4.14-48.719-1.144-77.544c-0.749-4.089-4.673-6.797-8.76-6.045
			c-4.088,0.749-6.795,4.672-6.045,8.76c4.934,26.915,5.392,52.997,1.257,71.557c-2.262,10.156-4.264,22.783-5.969,37.6
			c-6.44-1.153-12.485-2.503-18.001-4.054c-21.527-6.052-26.372-12.574-26.372-14.381V244.386c3.838,2.203,8.304,4.196,13.276,5.984
			c-1.48,26.746,2.508,48.336,11.892,64.228c5.936,10.053,11.183,22.01,15.595,35.54c1.288,3.951,5.534,6.11,9.489,4.822
			c3.952-1.289,6.111-5.537,4.822-9.489c-4.751-14.57-10.452-27.532-16.944-38.527c-7.338-12.428-10.747-30.338-9.987-52.168
			c10.125,2.471,21.44,4.326,33.282,5.59c0.674,0.073,1.354,0.141,2.034,0.21c0.566,0.057,1.132,0.113,1.7,0.167
			c7.227,0.695,14.729,1.18,22.427,1.442c0.768,0.027,1.535,0.05,2.303,0.072c0.742,0.021,1.485,0.041,2.231,0.058
			c1.28,0.03,2.56,0.055,3.839,0.072c0.212,0.003,0.425,0.004,0.637,0.007c1.554,0.018,3.107,0.029,4.656,0.029
			c1.625,0,3.246-0.013,4.864-0.034c0.654-0.008,1.305-0.02,1.957-0.031c0.885-0.016,1.768-0.034,2.65-0.055
			c0.895-0.021,1.789-0.044,2.68-0.071c0.294-0.009,0.586-0.021,0.879-0.031c17.512-0.575,34.145-2.296,48.762-5.049
			c-1.931,2.381-3.866,4.733-5.781,7.06c-12.611,15.322-24.523,29.795-28.188,44.769c-5.92,24.193-5.963,50.703-6.001,74.093
			c-0.038,22.962-0.073,44.651-5.601,59.193C139.45,459.594,134.798,477.952,132.179,496.932z M231.046,474.092
			c-0.137,0.847-1.113,2.416-3.673,4.378c-3.962,2.977-11.394,6.683-23.566,10.037c-0.704,0.194-1.416,0.385-2.136,0.572
			c-0.555,0.144-1.121,0.288-1.694,0.431c-0.687,0.171-1.382,0.339-2.082,0.505c-0.519,0.122-1.033,0.245-1.566,0.366
			c-0.001,0-0.002,0.001-0.004,0.001c-2.647-14.569-4.093-35.163,4.899-48.031c3.546-5.073,6.935-9.894,10.167-14.491
			c7.357-10.464,13.916-19.794,19.673-28.342v74.372h0.001C231.065,473.954,231.055,474.024,231.046,474.092z M199.078,419.203
			c-3.24,4.608-6.637,9.44-10.191,14.525c-11.622,16.63-10.883,40.265-7.356,59.463c-10.538,1.655-22.03,2.785-34.074,3.344
			c2.517-16.981,6.75-33.402,12.648-48.918c6.505-17.114,6.543-40.139,6.582-64.517c0.039-23.646,0.078-48.098,5.57-70.54
			c2.848-11.638,13.699-24.822,25.188-38.781c5.905-7.175,11.991-14.582,17.725-22.547c6.236-2.061,11.534-4.33,15.894-6.801V371.5
			h0.001C223.239,384.831,212.516,400.089,199.078,419.203z M231.065,224.313c0,1.703-4.304,7.587-22.791,13.322
			c-0.001,0-0.003,0.001-0.004,0.001c-1.216,0.378-2.466,0.745-3.745,1.103c-0.288,0.081-0.589,0.156-0.88,0.236
			c-1.028,0.281-2.062,0.56-3.127,0.828c-0.205,0.052-0.418,0.1-0.624,0.151c-1.209,0.3-2.432,0.594-3.686,0.877
			c-0.004,0.001-0.008,0.002-0.011,0.003c-17.072,3.849-38.208,6.135-60.371,6.487c-0.157,0.002-0.311,0.007-0.468,0.01
			c-1.842,0.027-3.69,0.041-5.544,0.041c-1.846,0-3.688-0.014-5.523-0.04c-0.043-0.001-0.086-0.002-0.129-0.003
			c-22.021-0.33-43.09-2.577-60.16-6.369c-0.015-0.003-0.03-0.007-0.045-0.01c-1.239-0.275-2.447-0.562-3.642-0.854
			c-0.254-0.062-0.513-0.123-0.766-0.186c-0.984-0.245-1.941-0.499-2.893-0.754c-0.389-0.105-0.784-0.206-1.168-0.313
			c-1.193-0.33-2.364-0.667-3.502-1.015c-19.017-5.796-23.424-11.793-23.424-13.515c0-2.599,7.405-9.553,29.855-15.311
			c2.644,2.221,5.395,4.431,8.282,6.619c0.519,0.393,1.042,0.777,1.563,1.165h-6.183c-4.157,0-7.526,3.37-7.526,7.526
			c0,4.157,3.37,7.526,7.526,7.526h135.139c4.157,0,7.526-3.37,7.526-7.526c0-4.157-3.37-7.526-7.526-7.526h-11.503
			c-0.623-3.748-1.023-7.514-1.216-11.287C219.781,211.435,231.065,221.175,231.065,224.313z M193.673,114.06
			c-15.185,28.68-23.352,56.342-24.242,81.535c-0.007,0.043-0.018,0.084-0.024,0.127c-0.076,0.561-0.082,1.114-0.036,1.655
			c-0.04,1.825-0.033,3.635,0.004,5.433c-18.11-2.21-42.978-9.567-70.112-30.14c-27.162-20.594-40.957-42.55-47.966-59.383
			c24.764-6.361,50.001-20.929,74.497-43.221c26.304-23.938,42.823-48.428,44.795-51.411c1.539-1.938,3.727-3.187,6.187-3.526
			c2.532-0.348,5.047,0.311,7.084,1.855l42.471,32.202c4.166,3.158,5.016,9.093,1.928,13.291
			C225.865,65.246,208.892,85.316,193.673,114.06z"/>
	</g>
</g>
<g>
</g>
<g>
</g>
<g>
</g>
<g>
</g>
<g>
</g>
<g>
</g>
<g>
</g>
<g>
</g>
<g>
</g>
<g>
</g>
<g>
</g>
<g>
</g>
<g>
</g>
<g>
</g>
<g>
</g>
</svg>
