<svg xmlns="http://www.w3.org/2000/svg" version="1.1" xmlns:xlink="http://www.w3.org/1999/xlink" xmlns:svgjs="http://svgjs.com/svgjs" width="512" height="512" x="0" y="0" viewBox="0 0 216.592 216.592" style="enable-background:new 0 0 512 512" xml:space="preserve" class=""><g transform="matrix(1,-2.4492935982947064e-16,2.4492935982947064e-16,1,-2.842170943040401e-14,2.842170943040401e-14)"><path d="M155.795 195.058h-7.719c-1.488 0-2.694 1.293-2.694 2.887s1.206 2.886 2.694 2.886h.36c1.488 0 2.694 1.293 2.694 2.887s-1.206 2.886-2.694 2.886h-16.593c-1.489 0-2.695 1.293-2.695 2.886 0 1.594 1.206 2.888 2.695 2.888h60.699c1.488 0 2.694-1.294 2.694-2.888 0-1.593-1.206-2.886-2.694-2.886h-4.606c-1.488 0-2.694-1.292-2.694-2.886s1.206-2.887 2.694-2.887h18.087c1.489 0 2.695-1.292 2.695-2.886s-1.206-2.887-2.695-2.887H155.795zM203.667 213.15c-1.248 0-2.259-1.385-2.259-3.093 0-1.709 1.011-3.094 2.259-3.094h6.923c1.248 0 2.259 1.385 2.259 3.094 0 1.708-1.011 3.093-2.259 3.093h-6.923zM192.823 72.871v5.615c0 1.083 1.407 1.96 3.141 1.96 1.735 0 3.14-.877 3.14-1.96v-.261c0-1.083 1.406-1.96 3.141-1.96 1.734 0 3.14.877 3.14 1.96v12.071c0 1.083 1.405 1.96 3.141 1.96 1.734 0 3.14-.877 3.14-1.96V46.14c0-1.084-1.406-1.961-3.14-1.961-1.736 0-3.141.877-3.141 1.961v3.349c0 1.084-1.406 1.961-3.14 1.961-1.735 0-3.141-.877-3.141-1.961V36.332c0-1.082-1.405-1.961-3.14-1.961-1.734 0-3.141.879-3.141 1.961V72.871zM212.506 33.698c0 1.921-1.506 3.479-3.365 3.479-1.859 0-3.366-1.558-3.366-3.479v-10.66c0-1.921 1.507-3.479 3.366-3.479 1.859 0 3.365 1.558 3.365 3.479v10.66zM199.505 108.427c0 1.92-1.506 3.478-3.365 3.478-1.859 0-3.366-1.558-3.366-3.478V97.768c0-1.921 1.507-3.479 3.366-3.479 1.859 0 3.365 1.558 3.365 3.479v10.659zM216.592 158.224c0 1.921-1.507 3.477-3.366 3.477-1.858 0-3.365-1.556-3.365-3.477v-10.66c0-1.922 1.507-3.48 3.365-3.48 1.859 0 3.366 1.558 3.366 3.48v10.66zM52.248 195.316 7.719 150.789c-9.809-9.809-9.809-25.713 0-35.523l63.646-63.644c9.81-9.809 25.714-9.809 35.525 0l44.529 44.528c9.809 9.809 9.809 25.714 0 35.523l-63.647 63.643c-9.809 9.811-25.714 9.811-35.524 0z" style="" fill="#ffffff" data-original="#fbb713" class=""></path><path d="M156.421 102.738c-.454 5.515-2.778 10.906-6.997 15.124l-64.926 64.923c-9.457 9.457-24.788 9.457-34.245 0L4.445 136.98a24.198 24.198 0 0 1-4.362-5.951c-.564 6.846 1.759 13.884 6.996 19.121l45.808 45.808c9.457 9.454 24.789 9.454 34.245 0l64.926-64.925c7.659-7.659 9.111-19.17 4.363-28.295z" style="opacity:0.35;enable-background:new ;" fill="#6d6e71" data-original="#000000" class=""></path><path d="m145.099 91.982-34.042-34.041 14.978-14.977 34.042 34.04-14.978 14.978z" style="" fill="#ffffff" data-original="#142a3b" class=""></path><path d="M161.06 77.987 125.052 41.98a3.017 3.017 0 0 1 .607-4.736l34.109-19.993a3.017 3.017 0 0 1 3.659.47l21.894 21.894a3.014 3.014 0 0 1 .47 3.657L165.796 77.38a3.017 3.017 0 0 1-4.736.607zM167.642 21.802l26.625-17.759c3.104-2.07 6.804 1.629 4.733 4.732l-17.76 26.624-13.598-13.597z" style="" fill="#ffffff" data-original="#142a3b" class=""></path><path d="m126.035 42.964 24.801 32.744-5.737 5.738-28.773-28.772-5.269 5.267 34.042 34.041 14.978-14.978-34.042-34.04z" style="opacity:0.35;enable-background:new ;" fill="#6d6e71" data-original="#000000" class=""></path><path d="m165.796 77.38 19.995-34.108a3.016 3.016 0 0 0-.47-3.659l-5.268-5.268a3.019 3.019 0 0 1 .47 3.66l-19.995 34.108a3.016 3.016 0 0 1-4.736.605l5.268 5.269a3.016 3.016 0 0 0 4.736-.607zM199 8.775c2.071-3.103-1.629-6.802-4.733-4.732l-1.608 1.073-16.688 25.014 5.269 5.269L199 8.775z" style="opacity:0.35;enable-background:new ;" fill="#6d6e71" data-original="#000000" class=""></path><path d="M86.036 171.467 31.57 117.002l41.531-41.529 54.466 54.465-41.531 41.529z" style="" fill="#010101" data-original="#ededed" class=""></path><path d="m124.933 132.571-38.896 38.896-51.832-51.831-2.635 2.634 54.467 54.465 41.53-41.53-2.634-2.634z" style="opacity:0.35;enable-background:new ;" fill="#6d6e71" data-original="#000000" class=""></path></g></svg>