<svg xmlns="http://www.w3.org/2000/svg" version="1.1" xmlns:xlink="http://www.w3.org/1999/xlink" xmlns:svgjs="http://svgjs.com/svgjs" width="512" height="512" x="0" y="0" viewBox="0 0 512 512" style="enable-background:new 0 0 512 512" xml:space="preserve"><g><path d="M310.392 101.976c-4.275-44.767-27.227-64.899-49.422-84.369a7.5 7.5 0 0 0-11.253 9.696c7.759 12.062 12.284 25.808 13.833 42.025 3.708 38.829-12.407 59.962-29.468 82.336-18.063 23.688-36.741 48.18-32.474 92.858 4.274 44.763 27.219 64.894 49.408 84.361a7.484 7.484 0 0 0 4.946 1.862 7.499 7.499 0 0 0 6.309-11.555c-7.75-12.056-12.271-25.801-13.82-42.021-3.708-38.829 12.407-59.962 29.468-82.335 18.063-23.687 36.74-48.18 32.473-92.858zm-76.874 176.619c.459 4.816 1.152 9.45 2.083 13.919-9.702-12.296-16.959-27.4-19.063-49.418-3.708-38.829 12.408-59.962 29.469-82.336 18.064-23.686 36.741-48.178 32.474-92.857a127.23 127.23 0 0 0-2.084-13.916c9.703 12.296 16.96 27.398 19.063 49.415 3.708 38.83-12.408 59.963-29.469 82.337-18.063 23.687-36.739 48.179-32.473 92.856zM207.392 101.977c-4.275-44.767-27.227-64.899-49.422-84.369a7.5 7.5 0 0 0-11.253 9.696c7.759 12.062 12.284 25.808 13.833 42.025 3.708 38.829-12.407 59.962-29.468 82.336-18.063 23.687-36.74 48.179-32.473 92.857 4.273 44.763 27.218 64.894 49.407 84.362a7.484 7.484 0 0 0 4.946 1.862 7.499 7.499 0 0 0 6.309-11.555c-7.75-12.056-12.271-25.801-13.82-42.021-3.708-38.829 12.407-59.962 29.468-82.335 18.063-23.687 36.74-48.18 32.473-92.858zm-76.873 176.619c.459 4.816 1.152 9.45 2.083 13.919-9.702-12.296-16.959-27.4-19.063-49.418-3.707-38.829 12.408-59.962 29.47-82.336 18.062-23.687 36.739-48.179 32.473-92.857a127.23 127.23 0 0 0-2.084-13.916c9.703 12.296 16.96 27.398 19.063 49.415 3.708 38.83-12.408 59.963-29.469 82.337-18.063 23.687-36.739 48.179-32.473 92.856zM413.392 101.976c-4.275-44.767-27.227-64.899-49.422-84.369a7.5 7.5 0 0 0-11.253 9.696c7.759 12.062 12.284 25.808 13.833 42.025 3.708 38.829-12.407 59.962-29.468 82.336-18.063 23.688-36.741 48.18-32.474 92.858 4.274 44.763 27.219 64.894 49.408 84.361a7.484 7.484 0 0 0 4.946 1.862 7.499 7.499 0 0 0 6.309-11.555c-7.75-12.056-12.271-25.801-13.82-42.021-3.708-38.829 12.407-59.962 29.468-82.335 18.063-23.687 36.74-48.18 32.473-92.858zm-76.874 176.619c.459 4.816 1.152 9.45 2.083 13.919-9.702-12.296-16.959-27.4-19.063-49.418-3.708-38.829 12.408-59.962 29.469-82.336 18.064-23.686 36.741-48.178 32.474-92.857a127.23 127.23 0 0 0-2.084-13.916c9.703 12.296 16.96 27.398 19.063 49.415 3.708 38.83-12.408 59.963-29.469 82.337-18.063 23.687-36.739 48.179-32.473 92.856z" fill="#ffffff" data-original="#000000"></path><path d="M445.336 286.625a7.5 7.5 0 0 0-8.968 11.778C446.741 309.355 452 320.838 452 332.531c0 21.493-17.977 42.434-50.619 58.962-34.167 17.301-80.562 27.779-130.64 29.505a7.499 7.499 0 0 0-7.237 7.753c.143 4.141 3.605 7.426 7.754 7.237C382.849 432.144 467 387.667 467 332.531c0-5.302-.762-10.523-2.277-15.646C485.731 333.48 497 352.223 497 371.254c0 28.323-24.324 55.422-68.49 76.306-45.954 21.728-107.219 33.694-172.51 33.694S129.443 469.287 83.49 447.56C39.324 426.676 15 399.577 15 371.254c0-19.031 11.269-37.773 32.277-54.369A54.932 54.932 0 0 0 45 332.531c0 55.136 84.151 99.612 195.742 103.457 4.157.183 7.611-3.098 7.754-7.237a7.5 7.5 0 0 0-7.237-7.753c-50.078-1.726-96.473-12.204-130.64-29.505C77.977 374.965 60 354.024 60 332.531c0-11.693 5.259-23.176 15.632-34.128a7.5 7.5 0 0 0-8.968-11.778C23.675 309.5 0 339.556 0 371.254c0 34.449 27.374 66.363 77.078 89.865 47.917 22.657 111.459 35.135 178.922 35.135s131.005-12.478 178.922-35.135C484.626 437.617 512 405.703 512 371.254c0-31.698-23.675-61.754-66.664-84.629z" fill="#ffffff" data-original="#000000"></path></g></svg>