<svg xmlns="http://www.w3.org/2000/svg" version="1.1" xmlns:xlink="http://www.w3.org/1999/xlink" xmlns:svgjs="http://svgjs.com/svgjs" width="512" height="512" x="0" y="0" viewBox="0 0 476.1 476.1" style="enable-background:new 0 0 512 512" xml:space="preserve" class=""><g><path d="m5.8 167.9 226 140.7c1.9 1.2 4.1 1.8 6.3 1.8s4.4-.6 6.3-1.8l226-140.7c3.5-2.2 5.7-6 5.7-10.2 0-4.1-2.1-8-5.7-10.2L244.4 6.8a12.1 12.1 0 0 0-12.7 0L5.7 147.5c-3.5 2.2-5.7 6-5.7 10.2.1 4.2 2.2 8 5.8 10.2zM238.1 31.1l203.3 126.6-203.3 126.6L34.8 157.7 238.1 31.1zM464.1 226.1c-3.2 0-6.3 1.3-8.5 3.5s-3.5 5.3-3.5 8.5 1.3 6.3 3.5 8.5 5.3 3.5 8.5 3.5 6.3-1.3 8.5-3.5 3.5-5.3 3.5-8.5-1.3-6.3-3.5-8.5-5.3-3.5-8.5-3.5zM420.1 251.4c-5.6 3.5-7.4 10.9-3.8 16.5 2.3 3.6 6.2 5.7 10.2 5.7 2.2 0 4.4-.6 6.3-1.8 5.6-3.5 7.3-10.9 3.8-16.5-3.5-5.7-10.9-7.4-16.5-3.9zM307.1 321.7c-5.6 3.5-7.4 10.9-3.8 16.5 2.3 3.7 6.2 5.7 10.2 5.7 2.2 0 4.4-.6 6.3-1.8 5.6-3.5 7.3-10.9 3.8-16.5s-10.9-7.4-16.5-3.9zM269.4 345.2c-5.6 3.5-7.3 10.9-3.8 16.5 2.3 3.7 6.2 5.7 10.2 5.7 2.2 0 4.4-.6 6.3-1.8 5.6-3.5 7.3-10.9 3.8-16.5-3.5-5.7-10.8-7.4-16.5-3.9zM344.8 298.3c-5.6 3.5-7.4 10.9-3.9 16.5 2.3 3.7 6.2 5.7 10.2 5.7 2.2 0 4.4-.6 6.3-1.8 5.6-3.5 7.3-10.9 3.8-16.5-3.4-5.7-10.8-7.4-16.4-3.9zM382.4 274.9c-5.6 3.5-7.3 10.9-3.8 16.5 2.3 3.6 6.2 5.7 10.2 5.7 2.2 0 4.4-.6 6.3-1.8 5.6-3.5 7.3-10.9 3.8-16.5-3.5-5.7-10.8-7.4-16.5-3.9zM229.6 370.3c-2.2 2.2-3.5 5.3-3.5 8.5s1.3 6.3 3.5 8.5 5.3 3.5 8.5 3.5 6.3-1.3 8.5-3.5 3.5-5.3 3.5-8.5-1.3-6.3-3.5-8.5-5.3-3.5-8.5-3.5-6.2 1.3-8.5 3.5zM190.2 349c-3.5 5.6-1.8 13 3.8 16.5 2 1.2 4.2 1.8 6.3 1.8 4 0 7.9-2 10.2-5.7 3.5-5.6 1.8-13-3.9-16.5-5.5-3.4-12.9-1.7-16.4 3.9zM39.6 255.2c-3.5 5.6-1.8 13 3.8 16.5 2 1.2 4.2 1.8 6.3 1.8 4 0 7.9-2 10.2-5.7 3.5-5.6 1.8-13-3.8-16.5s-13-1.7-16.5 3.9zM152.6 325.6c-3.5 5.6-1.8 13 3.8 16.5 2 1.2 4.2 1.8 6.3 1.8 4 0 7.9-2 10.2-5.7 3.5-5.6 1.8-13-3.8-16.5s-13-1.7-16.5 3.9zM114.9 302.1c-3.5 5.6-1.8 13 3.8 16.5 2 1.2 4.2 1.8 6.3 1.8 4 0 7.9-2 10.2-5.7 3.5-5.6 1.8-13-3.9-16.5-5.5-3.4-12.9-1.7-16.4 3.9zM77.2 278.7c-3.5 5.6-1.8 13 3.8 16.5 2 1.2 4.2 1.8 6.3 1.8 4 0 7.9-2 10.2-5.7 3.5-5.6 1.8-13-3.8-16.5-5.6-3.4-13-1.7-16.5 3.9zM12.1 250.1c3.2 0 6.3-1.3 8.5-3.5s3.5-5.3 3.5-8.5-1.3-6.3-3.5-8.5-5.3-3.5-8.5-3.5-6.3 1.3-8.5 3.5-3.5 5.3-3.5 8.5 1.3 6.3 3.5 8.5c2.3 2.3 5.3 3.5 8.5 3.5z" fill="#eaeaea" data-original="#000000" class=""></path><path d="M457.8 308.3 238.1 445.1 18.4 308.3c-5.6-3.5-13-1.8-16.5 3.8s-1.8 13 3.8 16.5l226 140.7c1.9 1.2 4.1 1.8 6.3 1.8s4.4-.6 6.3-1.8l226-140.7c5.6-3.5 7.3-10.9 3.8-16.5-3.3-5.6-10.7-7.3-16.3-3.8z" fill="#eaeaea" data-original="#000000" class=""></path></g></svg>