<svg xmlns="http://www.w3.org/2000/svg" version="1.1" xmlns:xlink="http://www.w3.org/1999/xlink" xmlns:svgjs="http://svgjs.com/svgjs" width="512" height="512" x="0" y="0" viewBox="0 0 447.113 447.113" style="enable-background:new 0 0 512 512" xml:space="preserve" class=""><g transform="matrix(-1,0,0,-1,447.1124572753906,447.11135292053234)"><path d="M337.601 143.407 424.886 26.1a10 10 0 0 0-13.992-13.993L293.586 99.392l-13.714-13.714c-3.906-3.905-10.236-3.905-14.143 0l-35.624 35.624c-17.053-12.397-41.127-10.916-56.498 4.454L6.877 292.488C2.442 296.922 0 302.818 0 309.09s2.442 12.167 6.877 16.602l104.425 104.425c4.577 4.577 10.589 6.865 16.602 6.865 6.012 0 12.025-2.289 16.602-6.866l166.731-166.731c15.37-15.37 16.851-39.445 4.453-56.499l35.624-35.624c3.905-3.905 3.905-10.237 0-14.143l-13.713-13.712zm30.559-74.573-44.852 60.28-15.427-15.427 60.279-44.853zm-71.065 180.409L130.364 415.975a3.485 3.485 0 0 1-4.92 0L21.019 311.549c-.887-.886-1.019-1.921-1.019-2.459s.132-1.573 1.02-2.46l166.731-166.732c9.216-9.216 24.212-9.217 33.431 0l75.914 75.914c9.216 9.217 9.216 24.214-.001 33.431zm4.835-56.88-57.3-57.3 28.171-28.171 57.3 57.3-28.171 28.171z" fill="#000000" data-original="#000000" class=""></path><path d="m443.631 103.168-17.91-34.18a10 10 0 0 0-17.714 0l-17.911 34.18c-6.17 11.773-3.999 25.998 5.399 35.396 5.892 5.891 13.63 8.837 21.369 8.837 7.738 0 15.478-2.946 21.369-8.837 9.398-9.4 11.567-23.624 5.398-35.396zm-19.541 21.253c-1.93 1.931-4.497 2.994-7.227 2.994s-5.297-1.063-7.227-2.994h-.001a10.175 10.175 0 0 1-1.826-11.97l9.054-17.276 9.053 17.276a10.175 10.175 0 0 1-1.826 11.97z" fill="#000000" data-original="#000000" class=""></path></g></svg>