<svg height="464pt" viewBox="-85 0 464 464" width="464pt" xmlns="http://www.w3.org/2000/svg"><path d="m146.695312 0s-16 23.199219-16 32c0 8.835938 7.164063 16 16 16 8.835938 0 16-7.164062 16-16 0-8.800781-16-32-16-32zm0 0"/><path d="m242.695312 32s-16 23.160156-16 32c0 8.835938 7.164063 16 16 16 8.835938 0 16-7.164062 16-16 0-8.800781-16-32-16-32zm0 0"/><path d="m50.695312 32s-16 23.160156-16 32c0 8.835938 7.164063 16 16 16 8.835938 0 16-7.164062 16-16 0-8.800781-16-32-16-32zm0 0"/><path d="m154.632812 112.335938c0-.121094.0625-.214844.0625-.335938v-16c0-4.417969-3.582031-8-8-8-4.417968 0-8 3.582031-8 8v16c0 .121094.066407.214844.066407.335938-65.511719 3.472656-121.429688 48.519531-138.761719 111.792968 10.605469-7.113281 23.609375-9.703125 36.128906-7.195312 12.519532 2.511718 23.523438 9.910156 30.566406 20.5625 7.683594-11.636719 20.058594-19.34375 33.890626-21.109375 13.832031-1.769531 27.746093 2.578125 38.109374 11.910156v195.703125c0 22.089844 17.910157 40 40 40 22.09375 0 40-17.910156 40-40v-32c0-4.417969-3.582031-8-8-8-4.417968 0-8 3.582031-8 8v32c0 13.253906-10.746093 24-24 24-13.253906 0-24-10.746094-24-24v-195.703125c10.363282-9.332031 24.277344-13.679687 38.109376-11.910156 13.832031 1.765625 26.207031 9.472656 33.890624 21.109375 7.046876-10.652344 18.046876-18.050782 30.566407-20.5625 12.519531-2.507813 25.527343.082031 36.128906 7.195312-17.332031-63.273437-73.25-108.320312-138.757813-111.792968zm0 0"/></svg>