<svg xmlns="http://www.w3.org/2000/svg" version="1.1" xmlns:xlink="http://www.w3.org/1999/xlink" xmlns:svgjs="http://svgjs.com/svgjs" width="512" height="512" x="0" y="0" viewBox="0 0 480.001 480" style="enable-background:new 0 0 512 512" xml:space="preserve" class=""><g><path d="M368 303.664c0-17.648-14.352-32-32-32h-56v-68c0-19.848-16.152-36-36-36s-36 16.152-36 36v32.688l-35.313 35.312H8c-4.422 0-8 3.582-8 8v192a8 8 0 0 0 8 8h328c17.648 0 32-14.351 32-32 0-9.601-4.336-18.129-11.055-24 6.72-5.875 11.055-14.402 11.055-24 0-9.601-4.336-18.129-11.055-24 6.72-5.875 11.055-14.402 11.055-24 0-9.601-4.336-18.129-11.055-24 6.72-5.875 11.055-14.402 11.055-24zm-352-16h48v176H16zm112 176H80v-176h48zm208-128c8.824 0 16 7.176 16 16s-7.176 16-16 16h-40v16h40c8.824 0 16 7.176 16 16s-7.176 16-16 16h-40v16h40c8.824 0 16 7.176 16 16s-7.176 16-16 16H144v-176h32c2.129 0 4.16-.84 5.656-2.344l40-40a7.985 7.985 0 0 0 2.344-5.656v-36c0-11.023 8.969-20 20-20s20 8.977 20 20v76a8 8 0 0 0 8 8h64c8.824 0 16 7.176 16 16s-7.176 16-16 16h-40v16zM191.344 102.46l-8.664 47.778a8.01 8.01 0 0 0 11.441 8.594L240 136l45.879 22.832a8.137 8.137 0 0 0 3.57.832 8.01 8.01 0 0 0 4.809-1.61 8.003 8.003 0 0 0 3.07-7.824l-8.664-47.777 36.77-33.91a7.97 7.97 0 0 0 2.207-8.273 7.996 7.996 0 0 0-6.543-5.528l-51.184-7.039-22.809-43.738c-2.753-5.285-11.44-5.285-14.183 0l-22.809 43.738-51.183 7.04a8.01 8.01 0 0 0-6.547 5.527 7.987 7.987 0 0 0 2.21 8.273zm25.023-39.468a7.99 7.99 0 0 0 6.008-4.226L240 24.965l17.625 33.8a7.997 7.997 0 0 0 6.008 4.227l38.48 5.293-27.527 25.403a8.015 8.015 0 0 0-2.457 7.304l6.601 36.406-35.167-17.496c-1.13-.558-2.348-.832-3.563-.832s-2.437.282-3.559.832l-35.168 17.496 6.598-36.406a7.993 7.993 0 0 0-2.453-7.305l-27.527-25.402zM473.082 120.629l-45.672-6.2-20.328-38.495c-2.785-5.246-11.379-5.246-14.16 0l-20.328 38.496-45.672 6.199a8 8 0 0 0-6.563 5.547 8.02 8.02 0 0 0 2.25 8.297l32.72 29.804-7.696 41.946a8.01 8.01 0 0 0 3.039 7.824 7.997 7.997 0 0 0 8.36.8L400 194.712l40.969 20.129a8.021 8.021 0 0 0 3.527.824c1.711 0 3.418-.555 4.832-1.625a7.995 7.995 0 0 0 3.04-7.824l-7.696-41.945 32.723-29.81a8.012 8.012 0 0 0 2.246-8.292 8.003 8.003 0 0 0-6.559-5.54zm-42.473 34.808a8.01 8.01 0 0 0-2.48 7.36l5.633 30.683-30.235-14.859c-1.117-.543-2.32-.824-3.527-.824s-2.414.273-3.527.824l-30.23 14.86 5.628-30.684a8.007 8.007 0 0 0-2.476-7.36l-23.336-21.261 32.773-4.45a7.996 7.996 0 0 0 6-4.19L400 96.795l15.168 28.74a8.015 8.015 0 0 0 6 4.19l32.777 4.45zM35.328 164.27l-7.695 41.945a8.01 8.01 0 0 0 3.039 7.824 7.997 7.997 0 0 0 8.36.8L80 194.712l40.969 20.129a8.021 8.021 0 0 0 3.527.824c1.711 0 3.418-.555 4.832-1.625a7.995 7.995 0 0 0 3.04-7.824l-7.696-41.945 32.723-29.81a8.012 8.012 0 0 0 2.246-8.292 8.01 8.01 0 0 0-6.559-5.547l-45.672-6.2-20.328-38.495c-2.785-5.246-11.379-5.246-14.16 0l-20.328 38.496-45.672 6.2a8 8 0 0 0-6.563 5.546 8.014 8.014 0 0 0 2.25 8.293zm23.504-34.543a7.996 7.996 0 0 0 6-4.192L80 96.797l15.168 28.738a8.015 8.015 0 0 0 6 4.192l32.777 4.449-23.336 21.262a8.01 8.01 0 0 0-2.48 7.359l5.633 30.683-30.235-14.859c-1.117-.543-2.32-.824-3.527-.824s-2.414.273-3.527.824l-30.23 14.86 5.628-30.684a8.007 8.007 0 0 0-2.476-7.36l-23.336-21.261zm0 0" fill="#fafafa" data-original="#000000" class=""></path><path d="M96 431.664h16v16H96zM96 399.664h16v16H96zM96 367.664h16v16H96zm0 0" fill="#fafafa" data-original="#000000" class=""></path></g></svg>