<svg xmlns="http://www.w3.org/2000/svg" version="1.1" xmlns:xlink="http://www.w3.org/1999/xlink" xmlns:svgjs="http://svgjs.com/svgjs" width="512" height="512" x="0" y="0" viewBox="0 0 512.001 512.001" style="enable-background:new 0 0 512 512" xml:space="preserve"><g><path d="M176.589 0H69.301a7.595 7.595 0 0 0-7.595 7.595v496.809a7.595 7.595 0 0 0 7.595 7.595h42.584l.027.002.024-.002h64.651a7.595 7.595 0 0 0 7.595-7.595V7.595A7.592 7.592 0 0 0 176.589 0zm-31.975 15.191c-1.254 2.705-2.992 4.227-4.164 4.227s-2.91-1.521-4.164-4.227h8.328zM87.135 496.808H76.896V175.386c29.4 115.54 13.952 285.753 10.239 321.422zm18.956-.001h-3.678c2.044-19.808 6.803-72.032 7.337-133.217.906-103.949-10.15-183.411-32.853-236.262V15.191h8.438c1.694 14.07 7.347 51.949 26.093 142.258 20.167 97.154 17.254 185.689 11.258 242.852-5.117 48.793-13.284 83.648-16.595 96.506zm15.686.001c3.852-15.506 11.149-48.726 15.974-94.512 6.147-58.331 9.151-148.695-11.45-247.934-18.076-87.09-23.846-124.696-25.672-139.172h19.72c2.483 11.335 10.425 19.418 20.103 19.418s17.619-8.081 20.102-19.418h8.44v18.641c-7.5 8.923-28.748 41.217-28.748 120.653s21.248 111.73 28.748 120.653v119.901c-29.92 28.719-35.558 81.953-36.617 101.77h-10.6zm47.217-432.02v179.377c-6.706-17.068-13.557-45.35-13.557-89.68-.001-44.351 6.857-72.64 13.557-89.697zm.001 432.02H147.62c.942-15.651 4.886-52.179 21.375-77.863v77.863zM309.041 0H201.754a7.595 7.595 0 0 0-7.595 7.595v496.808a7.595 7.595 0 0 0 7.595 7.595h107.287a7.594 7.594 0 0 0 7.595-7.595V7.595A7.594 7.594 0 0 0 309.041 0zm-99.693 15.191h21.375c-.942 15.652-4.886 52.179-21.375 77.863V15.191zm0 252.643c6.706 17.068 13.557 45.35 13.557 89.679 0 44.351-6.858 72.639-13.557 89.696V267.834zm24.38 228.974c1.254-2.705 2.992-4.227 4.163-4.227 1.172-.001 2.91 1.521 4.164 4.227h-8.327zm24.266-.001c-2.483-11.335-10.426-19.418-20.103-19.418-9.677 0-17.619 8.082-20.102 19.418h-8.44v-18.641c7.5-8.923 28.748-41.217 28.748-120.652s-21.248-111.73-28.748-120.652V116.961c29.92-28.718 35.56-81.952 36.617-101.77h10.6c-3.852 15.506-11.149 48.726-15.975 94.512-6.147 58.331-9.151 148.695 11.449 247.934 18.077 87.089 23.848 124.696 25.674 139.17h-19.72zm43.451.001h-8.438c-1.694-14.07-7.347-51.949-26.093-142.258-20.167-97.154-17.254-185.689-11.258-242.852 5.118-48.793 13.285-83.647 16.596-96.506h3.677c-2.044 19.809-6.803 72.032-7.337 133.217-.907 103.949 10.15 183.412 32.853 236.262v112.137zm.001-160.195c-29.4-115.539-13.952-285.753-10.239-321.422h10.239v321.422zM442.7 0H335.413a7.594 7.594 0 0 0-7.595 7.595V504.404c0 4.195 3.4 7.595 7.595 7.595h42.584l.027.002.024-.002H442.7a7.594 7.594 0 0 0 7.595-7.595V7.595A7.594 7.594 0 0 0 442.7 0zm-31.973 15.191c-1.254 2.705-2.992 4.227-4.164 4.227-1.173 0-2.911-1.521-4.164-4.227h8.328zm-57.48 481.617h-10.239V175.386c29.401 115.54 13.953 285.753 10.239 321.422zm18.955-.001h-3.677c2.044-19.808 6.803-72.032 7.337-133.217.907-103.949-10.151-183.411-32.853-236.262V15.191h8.438c1.694 14.07 7.347 51.949 26.093 142.258 20.167 97.154 17.254 185.689 11.258 242.852-5.117 48.793-13.284 83.648-16.596 96.506zm15.686 0c3.851-15.506 11.149-48.726 15.975-94.512 6.147-58.331 9.151-148.695-11.449-247.934-18.077-87.088-23.849-124.694-25.674-139.17h19.72c2.483 11.335 10.426 19.418 20.103 19.418s17.619-8.081 20.102-19.418h8.44v18.641c-7.5 8.923-28.748 41.217-28.748 120.653s21.248 111.73 28.748 120.652v119.901c-29.919 28.719-35.558 81.953-36.617 101.77h-10.6zm47.217-432.018v179.375c-6.706-17.068-13.557-45.35-13.557-89.679 0-44.351 6.857-72.639 13.557-89.696zm.001 432.019h-21.375c.942-15.651 4.886-52.179 21.375-77.863v77.863z" fill="#ffffff" data-original="#000000"></path></g></svg>